<svg xmlns="http://www.w3.org/2000/svg" width="43" height="44" viewBox="0 0 43 44">
    <defs>
        <clipPath id="wht1n8n48a">
            <path data-name="Rectangle 335" transform="translate(1257 464)" style="stroke:#707070;fill:#1a7cfc" d="M0 0h32v32H0z"/>
        </clipPath>
    </defs>
    <g data-name="Group 43" transform="translate(-1246 -452)">
        <circle data-name="Ellipse 63" cx="21" cy="21" r="21" transform="translate(1246 452)" style="fill:#cfe4ff"/>
        <g style="clip-path:url(#wht1n8n48a)">
            <path d="M32.226 9.716c-.128-1.443-2.277-2.164-3.511-2.373a6.272 6.272 0 0 0-2.87.224c-.032 0-.048.016-.08.032l-7.856 3.688c-1.315-.433-2.677-.93-4.008-1.411-1.427-.513-2.886-1.042-4.3-1.507a.2.2 0 0 0-.1-.016 5.623 5.623 0 0 0-1.8 0 5.475 5.475 0 0 0-2.245.9.663.663 0 0 0-.289.529.64.64 0 0 0 .289.529l6.044 3.976-4.895 2.307-3.783-2.485a.637.637 0 0 0-.513-.08l-1.587.4a.642.642 0 0 0-.433.353.629.629 0 0 0 .016.561l2.581 5.147a.712.712 0 0 0 .128.176 4.218 4.218 0 0 0 4.858.721l7.311-2.613-1.154 8.594a.613.613 0 0 0 .192.545.619.619 0 0 0 .433.176.353.353 0 0 0 .128-.016 5.424 5.424 0 0 0 1.331-.449 5.891 5.891 0 0 0 2-1.555.349.349 0 0 0 .08-.128l5.05-10.293a30.294 30.294 0 0 0 7.471-3.768c.598-.401 1.592-1.122 1.512-2.164zM7.07 9.828A4.919 4.919 0 0 1 7.9 9.6a4.117 4.117 0 0 1 1.331 0c1.363.465 2.806.978 4.217 1.475.914.337 1.86.673 2.774.994l-3.351 1.571zm22.943 1.01a29.361 29.361 0 0 1-7.391 3.688.583.583 0 0 0-.353.321L17.139 25.3a4.675 4.675 0 0 1-1.523 1.17c-.048.016-.1.048-.144.064l1.154-8.642a.637.637 0 0 0-.224-.577.616.616 0 0 0-.4-.144.812.812 0 0 0-.208.032l-8.355 2.982c-.032.016-.048.016-.08.032a2.907 2.907 0 0 1-1.635.321 2.954 2.954 0 0 1-1.716-.754l-2.2-4.329.545-.128 3.836 2.533a.625.625 0 0 0 .625.048l19.432-9.122a4.878 4.878 0 0 1 2.245-.16c1.315.208 2.4.834 2.437 1.2q.047.315-.915 1.012z" transform="translate(1256.77 462.32)" style="fill:#1a7cfc" data-name="Mask Group 12"/>
        </g>
    </g>
</svg>
