<svg xmlns="http://www.w3.org/2000/svg" width="486" height="486" viewBox="0 0 486 486">
  <defs>
    <clipPath id="clip-path">
      <path id="Rectangle_686" fill="#4a4a4a" stroke="#707070" d="M0 0H486V486H0z" transform="translate(360 395)"/>
    </clipPath>
    <style>
      .cls-3{fill:#4a4a4a}
    </style>
  </defs>
  <g id="Mask_Group_157" clip-path="url(#clip-path)" transform="translate(-360 -395)">
    <g id="msegslogo_-_sym" transform="translate(353.348 389.69)">
      <path id="Path_2468" d="M432.473 137.339h-62.165a175.2 175.2 0 0 0-252.83-19.762c-.3.3-.7.6-.993.894a16.491 16.491 0 0 0-1.39 1.291 173.771 173.771 0 0 0-53.426 96.326 166.054 166.054 0 0 0-2.88 31.579 8.745 8.745 0 0 1 .2 1.688l.2 6.753a158.276 158.276 0 0 0 3.178 26.912h.1l.3.1a173.921 173.921 0 0 0 12.91 39.126l-.4-.1A174.891 174.891 0 0 0 157.2 405.76a171.981 171.981 0 0 0 65.641 17.378l19.067 52.234-6.852.2c-7.249 0-14.2-.3-20.953-.894-111.42-9.831-200.794-100.6-206.653-214.4a8.649 8.649 0 0 1-.5-1.887l-.3-9.136a227.093 227.093 0 0 1 42.7-133.565c2.284-2.88 4.568-5.958 6.852-8.937a227.732 227.732 0 0 1 167.031-85.3c.3-.1.7-.1.993-.2 1.39 0 2.781-.1 4.072-.2h5.065a226.372 226.372 0 0 1 199.11 116.286z" class="cls-3"/>
      <path id="Path_2469" d="M272.592 448.66v-40.12a6.548 6.548 0 0 1 6.554-6.554h124.23a6.548 6.548 0 0 1 6.554 6.554v40.12a6.548 6.548 0 0 1-6.554 6.554H279.245a6.508 6.508 0 0 1-6.653-6.554z" class="cls-3"/>
      <path id="Path_2470" d="M468.719 169.712H215.194a24.941 24.941 0 0 0-24.926 24.926v169.116a8.689 8.689 0 0 0 8.739 8.739H486.2a6.442 6.442 0 0 0 6.455-6.455V193.645a24.009 24.009 0 0 0-23.936-23.933zm-29.394 143.2a6.358 6.358 0 0 1-6.455 6.355H249.851a6.274 6.274 0 0 1-6.355-6.355v-83.319a6.358 6.358 0 0 1 6.355-6.455h182.92a6.442 6.442 0 0 1 6.455 6.455v83.317z" class="cls-3"/>
    </g>
  </g>
</svg>