<svg xmlns="http://www.w3.org/2000/svg" width="42" height="44" viewBox="0 0 42 44">
    <defs>
        <clipPath id="ijagynwnta">
            <path data-name="Rectangle 332" transform="translate(590 464)" style="stroke:#707070;fill:#ecb211" d="M0 0h32v32H0z"/>
        </clipPath>
    </defs>
    <g data-name="Group 41" transform="translate(-636 -452)">
        <circle data-name="Ellipse 61" cx="21" cy="21" r="21" transform="translate(636 452)" style="fill:#e6d052;opacity:.22"/>
        <g data-name="Mask Group 10" transform="translate(52)" style="clip-path:url(#ijagynwnta)">
            <g data-name="population2 8">
                <path data-name="Path 119" d="M11.957 5.531a6.263 6.263 0 1 0 6.263 6.263 6.277 6.277 0 0 0-6.263-6.263zm0 11.225a4.962 4.962 0 1 1 4.962-4.962 4.971 4.971 0 0 1-4.962 4.962z" style="fill:#ecb211" transform="translate(589.512 462.162)"/>
                <path data-name="Path 120" d="M24.061 28.275a8.561 8.561 0 0 0-2.668-5.775 8.838 8.838 0 0 0-1.79-1.3 8.674 8.674 0 0 0-1.383-.6 8.6 8.6 0 0 0-2.684-.423H9.029a8.54 8.54 0 0 0-8.541 8.537v1.708h1.3v-1.708a7.255 7.255 0 0 1 7.239-7.239h6.507a7.763 7.763 0 0 1 1.236.1 9.011 9.011 0 0 1 1.3.342 8.891 8.891 0 0 1 1.188.569 7.216 7.216 0 0 1 3.5 5.775c0 .146.016.293.016.439v1.92h1.3V28.7a3.82 3.82 0 0 0-.013-.425z" style="fill:#ecb211" transform="translate(589.512 462.162)"/>
                <path data-name="Path 121" d="M22.776 30.422v.211h1.3v-.211z" style="fill:#ecb211" transform="translate(589.512 462.162)"/>
                <path data-name="Path 122" d="M24.435 5.043a4.295 4.295 0 1 0 4.295 4.295 4.291 4.291 0 0 0-4.295-4.295zm0 7.288a2.993 2.993 0 1 1 2.993-2.993 3 3 0 0 1-2.993 2.993z" style="fill:#ecb211" transform="translate(589.512 462.162)"/>
                <path data-name="Path 123" d="M24.061 28.275h-1.3c0 .146.016.293.016.439v.862h1.3v-.862a3.964 3.964 0 0 0-.016-.439zm1.09-13.731h-1.009a7.411 7.411 0 0 0-7.207 5.743 8.183 8.183 0 0 0-.146.911c-.016.13-.016.244-.033.374a9.011 9.011 0 0 1 1.3.342 5.533 5.533 0 0 1 .049-.732c.033-.2.065-.407.1-.6a6.089 6.089 0 0 1 5.938-4.75h1.009a6.086 6.086 0 0 1 6.036 5.352h1.3a7.381 7.381 0 0 0-7.337-6.64z" style="fill:#ecb211" transform="translate(589.512 462.162)"/>
                <path data-name="Path 124" d="M22.776 29.332v1.3h1.3v-1.3zM19.6 21.2H9.582v.277h5.954a7.763 7.763 0 0 1 1.236.1 9.011 9.011 0 0 1 1.3.342 8.891 8.891 0 0 1 1.188.569h2.147A10.1 10.1 0 0 0 19.6 21.2z" style="fill:#ecb211" transform="translate(589.512 462.162)"/>
            </g>
        </g>
    </g>
</svg>
