<svg xmlns="http://www.w3.org/2000/svg" width="42" height="42" viewBox="0 0 42 42">
    <defs>
        <clipPath id="0tce0abmva">
            <path data-name="Rectangle 1506" transform="translate(1256 462)" style="stroke:#707070;fill:#2276e3" d="M0 0h32v32H0z"/>
        </clipPath>
    </defs>
    <g data-name="Group 1046" transform="translate(-1246 -452)">
        <circle data-name="Ellipse 63" cx="21" cy="21" r="21" transform="translate(1246 452)" style="fill:#cfe4ff"/>
        <g data-name="Mask Group 16" style="clip-path:url(#0tce0abmva)">
            <path data-name="Path 281" d="M13.3 6.705a3.112 3.112 0 1 1 3.12-3.1 3.123 3.123 0 0 1-3.12 3.1zm0-4.937A1.833 1.833 0 1 0 15.131 3.6 1.832 1.832 0 0 0 13.3 1.769z" style="fill:#2276e3" transform="translate(1256.064 461.969)"/>
            <path data-name="Path 282" d="M16.53 13.845a1.217 1.217 0 0 1-.241-.016l-4.808-.515.145-1.286 4.84.531a.482.482 0 0 0 .386-.113.538.538 0 0 0 .177-.322.463.463 0 0 0-.145-.338.443.443 0 0 0-.37-.145h-.032l-3.65-.273-.691-.691-.273-1.351a7.416 7.416 0 0 0-2.219-2.09A7.519 7.519 0 0 0 7.735 6.4l.354-1.238a9.025 9.025 0 0 1 2.251.981 9.068 9.068 0 0 1 2.669 2.525l.08.113.241 1.238.08.08 3.12.241h.016a1.789 1.789 0 0 1 1.27.531 1.72 1.72 0 0 1-.145 2.557 1.819 1.819 0 0 1-1.141.417z" style="fill:#2276e3" transform="translate(1256.064 461.969)"/>
            <path data-name="Path 283" d="M13.765 25.31a2.143 2.143 0 0 1-2.042-1.479l-.016-.048v-.064c-.113-.8-.225-1.64-.322-2.492-.08-.643-.161-1.3-.257-1.93-.756-.016-1.5-.048-2.235-.129a5.086 5.086 0 0 1-2.8-.788A3.806 3.806 0 0 1 4.84 16.5a4.642 4.642 0 0 1-.016-2.4 20.385 20.385 0 0 1 1.335-4.02 47.154 47.154 0 0 1 1.447-3.168c.257-.5.515-.981.788-1.463l1.11.643-.772 1.4c-.466.9-.933 1.93-1.415 3.071a18.948 18.948 0 0 0-1.27 3.779 3.431 3.431 0 0 0-.016 1.769 2.348 2.348 0 0 0 .82 1.238c.129.1.434.338 2.139.515a24.229 24.229 0 0 0 2.653.129h.557l.08.563c.113.8.225 1.64.322 2.492.113.82.209 1.64.322 2.412a.876.876 0 0 0 .8.547.914.914 0 0 0 .772-.466c-.209-1.11-.418-2.283-.611-3.409-.193-1.061-.386-2.171-.579-3.216l-4.84-1.688.418-1.222 5.564 1.946.064.37c.225 1.174.434 2.412.643 3.6s.434 2.428.643 3.586l.032.161-.048.161a2.109 2.109 0 0 1-2.017 1.48z" style="fill:#2276e3" transform="translate(1256.064 461.969)"/>
            <path data-name="Rectangle 1507" transform="rotate(-63.699 1016.885 -780.18)" style="fill:#2276e3" d="M0 0h3.538v1.286H0z"/>
            <path data-name="Path 284" d="M1.9 29.089a1.978 1.978 0 0 1-1.206-.4A2.1 2.1 0 0 1 .1 26.243l.048-.113.08-.08c.8-.9 1.576-1.817 2.332-2.718a19.086 19.086 0 0 0 1.254-1.624 9.9 9.9 0 0 0 1.222-3.087l1.254.289A11.143 11.143 0 0 1 4.9 22.4a15.839 15.839 0 0 1-1.351 1.753c-.724.884-1.5 1.769-2.267 2.653a.808.808 0 0 0 .225.852.776.776 0 0 0 .547.129.936.936 0 0 0 .627-.386l.032-.032 3.457-4.1 1.737-3.811L9.069 20 7.2 23.992 3.65 28.2a2.2 2.2 0 0 1-1.463.884z" style="fill:#2276e3" transform="translate(1256.064 461.969)"/>
            <path data-name="Path 285" d="M5.692 13.556a4.126 4.126 0 0 1-2.959-2.525 3.516 3.516 0 0 1 0-1.914l.016-.048 1.994-4.1a4.1 4.1 0 0 1 4.792-2.01L9.15 4.181a2.827 2.827 0 0 0-1.9.113 2.9 2.9 0 0 0-1.365 1.254L3.956 9.5a2.025 2.025 0 0 0 .016 1.158A2.8 2.8 0 0 0 5.95 12.3z" style="fill:#2276e3" transform="translate(1256.064 461.969)"/>
            <path data-name="Rectangle 1508" transform="rotate(-.28 96402.306 -260168.25)" style="fill:#2276e3" d="M0 0h1.286v17.656H0z"/>
            <path data-name="Path 286" d="m.37 31.581-.418-1.206 12.993-4.631 3.65-.322 6.094-7.107 8.732-3.795.515 1.19-8.458 3.666-6.255 7.268-4 .37z" style="fill:#2276e3" transform="translate(1256.064 461.969)"/>
        </g>
    </g>
</svg>
