<svg xmlns="http://www.w3.org/2000/svg" xmlns:xlink="http://www.w3.org/1999/xlink" version="1.1" width="256" height="256" viewBox="0 0 256 256" xml:space="preserve">
<desc>Created with Fabric.js 1.7.22</desc>
<defs>
</defs>
<g transform="translate(128 128) scale(0.72 0.72)" style="">
	<g style="stroke: none; stroke-width: 0; stroke-dasharray: none; stroke-linecap: butt; stroke-linejoin: miter; stroke-miterlimit: 10; fill: none; fill-rule: nonzero; opacity: 1;" transform="translate(-175.05 -175.05000000000004) scale(3.89 3.89)" >
	<path d="M 11.631 79.369 c -0.256 0 -0.512 -0.098 -0.707 -0.293 c -0.391 -0.391 -0.391 -1.023 0 -1.414 l 66.738 -66.738 c 0.391 -0.391 1.023 -0.391 1.414 0 s 0.391 1.023 0 1.414 L 12.338 79.076 C 12.143 79.271 11.887 79.369 11.631 79.369 z" style="stroke: none; stroke-width: 1; stroke-dasharray: none; stroke-linecap: butt; stroke-linejoin: miter; stroke-miterlimit: 10; fill: rgb(0,0,0); fill-rule: nonzero; opacity: 1;" transform=" matrix(1 0 0 1 0 0) " stroke-linecap="round" />
	<path d="M 24.358 66.642 c -0.167 0 -0.335 -0.041 -0.49 -0.129 C 16.011 62.079 8.059 55.057 0.231 45.639 c -0.308 -0.371 -0.308 -0.908 0 -1.278 c 21.799 -26.225 43.97 -33.25 65.901 -20.874 c 0.481 0.271 0.651 0.881 0.38 1.363 c -0.271 0.48 -0.881 0.651 -1.362 0.379 C 44.361 13.498 23.223 20.149 2.304 45 c 7.498 8.908 15.081 15.558 22.546 19.771 c 0.481 0.271 0.651 0.882 0.38 1.362 C 25.046 66.459 24.707 66.642 24.358 66.642 z" style="stroke: none; stroke-width: 1; stroke-dasharray: none; stroke-linecap: butt; stroke-linejoin: miter; stroke-miterlimit: 10; fill: rgb(0,0,0); fill-rule: nonzero; opacity: 1;" transform=" matrix(1 0 0 1 0 0) " stroke-linecap="round" />
	<path d="M 44.925 72.449 c -4.466 0 -8.925 -0.797 -13.376 -2.393 c -0.52 -0.187 -0.791 -0.759 -0.604 -1.279 c 0.186 -0.52 0.76 -0.791 1.279 -0.604 C 50.559 74.746 69.22 66.95 87.696 45 c -5.321 -6.322 -10.704 -11.529 -16.007 -15.485 c -0.443 -0.331 -0.534 -0.957 -0.204 -1.4 s 0.957 -0.533 1.399 -0.204 c 5.607 4.184 11.288 9.718 16.884 16.45 c 0.309 0.371 0.309 0.908 0 1.278 C 74.942 63.477 59.909 72.449 44.925 72.449 z" style="stroke: none; stroke-width: 1; stroke-dasharray: none; stroke-linecap: butt; stroke-linejoin: miter; stroke-miterlimit: 10; fill: rgb(0,0,0); fill-rule: nonzero; opacity: 1;" transform=" matrix(1 0 0 1 0 0) " stroke-linecap="round" />
	<path d="M 45 63.5 c -2.019 0 -4.006 -0.324 -5.905 -0.962 c -0.523 -0.177 -0.805 -0.743 -0.629 -1.267 c 0.175 -0.523 0.743 -0.803 1.267 -0.63 C 41.426 61.211 43.198 61.5 45 61.5 c 9.098 0 16.5 -7.402 16.5 -16.5 c 0 -1.804 -0.289 -3.577 -0.858 -5.269 c -0.177 -0.523 0.104 -1.091 0.628 -1.267 c 0.528 -0.177 1.091 0.106 1.267 0.628 C 63.176 40.991 63.5 42.979 63.5 45 C 63.5 55.201 55.201 63.5 45 63.5 z" style="stroke: none; stroke-width: 1; stroke-dasharray: none; stroke-linecap: butt; stroke-linejoin: miter; stroke-miterlimit: 10; fill: rgb(0,0,0); fill-rule: nonzero; opacity: 1;" transform=" matrix(1 0 0 1 0 0) " stroke-linecap="round" />
	<path d="M 32.625 58.374 c -0.256 0 -0.512 -0.098 -0.707 -0.293 C 28.424 54.587 26.5 49.94 26.5 45 c 0 -10.201 8.299 -18.5 18.5 -18.5 c 4.882 0 9.487 1.884 12.969 5.306 c 0.394 0.387 0.399 1.021 0.012 1.415 c -0.387 0.392 -1.02 0.399 -1.414 0.012 C 53.462 30.181 49.354 28.5 45 28.5 c -9.098 0 -16.5 7.402 -16.5 16.5 c 0 4.406 1.716 8.55 4.833 11.667 c 0.391 0.391 0.391 1.023 0 1.414 C 33.137 58.276 32.881 58.374 32.625 58.374 z" style="stroke: none; stroke-width: 1; stroke-dasharray: none; stroke-linecap: butt; stroke-linejoin: miter; stroke-miterlimit: 10; fill: rgb(0,0,0); fill-rule: nonzero; opacity: 1;" transform=" matrix(1 0 0 1 0 0) " stroke-linecap="round" />
</g>
</g>
</svg>